<svg xmlns="http://www.w3.org/2000/svg" xmlns:xlink="http://www.w3.org/1999/xlink" width="1080" zoomAndPan="magnify" viewBox="0 0 810 1439.999935" height="1920" preserveAspectRatio="xMidYMid meet" version="1.0"><defs><clipPath id="id1"><path d="M 23.496094 1022 L 810 1022 L 810 1066.585938 L 23.496094 1066.585938 Z M 23.496094 1022 " clip-rule="nonzero"/></clipPath><clipPath id="id2"><path d="M 23.496094 687 L 810 687 L 810 732 L 23.496094 732 Z M 23.496094 687 " clip-rule="nonzero"/></clipPath><clipPath id="id3"><path d="M 23.496094 352.585938 L 810 352.585938 L 810 397 L 23.496094 397 Z M 23.496094 352.585938 " clip-rule="nonzero"/></clipPath><clipPath id="id4"><path d="M 0 997 L 810 997 L 810 1042.761719 L 0 1042.761719 Z M 0 997 " clip-rule="nonzero"/></clipPath><clipPath id="id5"><path d="M 0 307.761719 L 810 307.761719 L 810 354 L 0 354 Z M 0 307.761719 " clip-rule="nonzero"/></clipPath></defs><g clip-path="url(#id1)"><path fill="#393838" d="M 788.078125 1066.597656 L 45.78125 1066.597656 C 33.632812 1066.597656 23.800781 1056.769531 23.800781 1044.621094 C 23.800781 1032.46875 33.632812 1022.632812 45.78125 1022.632812 L 788.078125 1022.632812 C 800.226562 1022.632812 810.070312 1032.46875 810.070312 1044.621094 C 810.070312 1056.769531 800.226562 1066.597656 788.078125 1066.597656 " fill-opacity="1" fill-rule="nonzero"/></g><g clip-path="url(#id2)"><path fill="#393838" d="M 788.078125 731.574219 L 45.78125 731.574219 C 33.632812 731.574219 23.800781 721.734375 23.800781 709.585938 C 23.800781 697.4375 33.632812 687.59375 45.78125 687.59375 L 788.078125 687.59375 C 800.226562 687.59375 810.070312 697.4375 810.070312 709.585938 C 810.070312 721.734375 800.226562 731.574219 788.078125 731.574219 " fill-opacity="1" fill-rule="nonzero"/></g><g clip-path="url(#id3)"><path fill="#393838" d="M 788.078125 396.539062 L 45.78125 396.539062 C 33.632812 396.539062 23.800781 386.703125 23.800781 374.546875 C 23.800781 362.398438 33.632812 352.570312 45.78125 352.570312 L 788.078125 352.570312 C 800.226562 352.570312 810.070312 362.398438 810.070312 374.546875 C 810.070312 386.703125 800.226562 396.539062 788.078125 396.539062 " fill-opacity="1" fill-rule="nonzero"/></g><g clip-path="url(#id4)"><path fill="#bf99d1" d="M 787.171875 1042.777344 L 22.945312 1042.777344 C 10.4375 1042.777344 0.316406 1032.660156 0.316406 1020.152344 C 0.316406 1007.644531 10.4375 997.515625 22.945312 997.515625 L 787.171875 997.515625 C 799.679688 997.515625 809.8125 1007.644531 809.8125 1020.152344 C 809.8125 1032.660156 799.679688 1042.777344 787.171875 1042.777344 " fill-opacity="1" fill-rule="nonzero"/></g><path fill="#bf99d1" d="M 787.171875 697.898438 L 22.945312 697.898438 C 10.4375 697.898438 0.316406 687.769531 0.316406 675.261719 C 0.316406 662.757812 10.4375 652.625 22.945312 652.625 L 787.171875 652.625 C 799.679688 652.625 809.8125 662.757812 809.8125 675.261719 C 809.8125 687.769531 799.679688 697.898438 787.171875 697.898438 " fill-opacity="1" fill-rule="nonzero"/><g clip-path="url(#id5)"><path fill="#bf99d1" d="M 787.171875 353.007812 L 22.945312 353.007812 C 10.4375 353.007812 0.316406 342.882812 0.316406 330.371094 C 0.316406 317.863281 10.4375 307.746094 22.945312 307.746094 L 787.171875 307.746094 C 799.679688 307.746094 809.8125 317.863281 809.8125 330.371094 C 809.8125 342.882812 799.679688 353.007812 787.171875 353.007812 " fill-opacity="1" fill-rule="nonzero"/></g></svg>