<svg xmlns="http://www.w3.org/2000/svg" xmlns:xlink="http://www.w3.org/1999/xlink" width="1080" zoomAndPan="magnify" viewBox="0 0 810 1439.999935" height="1920" preserveAspectRatio="xMidYMid meet" version="1.0"><defs><clipPath id="id1"><path d="M 155.738281 935 L 657.488281 935 L 657.488281 963.1875 L 155.738281 963.1875 Z M 155.738281 935 " clip-rule="nonzero"/></clipPath><clipPath id="id2"><path d="M 155.738281 721 L 657.488281 721 L 657.488281 750 L 155.738281 750 Z M 155.738281 721 " clip-rule="nonzero"/></clipPath><clipPath id="id3"><path d="M 155.738281 507.1875 L 657.488281 507.1875 L 657.488281 536 L 155.738281 536 Z M 155.738281 507.1875 " clip-rule="nonzero"/></clipPath><clipPath id="id4"><path d="M 140.738281 920 L 642.488281 920 L 642.488281 948.1875 L 140.738281 948.1875 Z M 140.738281 920 " clip-rule="nonzero"/></clipPath><clipPath id="id5"><path d="M 140.738281 706 L 642.488281 706 L 642.488281 735 L 140.738281 735 Z M 140.738281 706 " clip-rule="nonzero"/></clipPath><clipPath id="id6"><path d="M 140.738281 492.1875 L 642.488281 492.1875 L 642.488281 521 L 140.738281 521 Z M 140.738281 492.1875 " clip-rule="nonzero"/></clipPath></defs><g clip-path="url(#id1)"><path fill="rgb(22.349548%, 21.958923%, 21.958923%)" d="M 643.355469 963.195312 L 169.945312 963.195312 C 162.199219 963.195312 155.925781 956.917969 155.925781 949.160156 C 155.925781 941.398438 162.199219 935.117188 169.945312 935.117188 L 643.355469 935.117188 C 651.105469 935.117188 657.378906 941.398438 657.378906 949.160156 C 657.378906 956.917969 651.105469 963.195312 643.355469 963.195312 " fill-opacity="1" fill-rule="nonzero"/></g><g clip-path="url(#id2)"><path fill="rgb(22.349548%, 21.958923%, 21.958923%)" d="M 643.355469 749.230469 L 169.945312 749.230469 C 162.199219 749.230469 155.925781 742.945312 155.925781 735.1875 C 155.925781 727.429688 162.199219 721.144531 169.945312 721.144531 L 643.355469 721.144531 C 651.105469 721.144531 657.378906 727.429688 657.378906 735.1875 C 657.378906 742.945312 651.105469 749.230469 643.355469 749.230469 " fill-opacity="1" fill-rule="nonzero"/></g><g clip-path="url(#id3)"><path fill="rgb(22.349548%, 21.958923%, 21.958923%)" d="M 643.355469 535.257812 L 169.945312 535.257812 C 162.199219 535.257812 155.925781 528.976562 155.925781 521.214844 C 155.925781 513.453125 162.199219 507.179688 169.945312 507.179688 L 643.355469 507.179688 C 651.105469 507.179688 657.378906 513.453125 657.378906 521.214844 C 657.378906 528.976562 651.105469 535.257812 643.355469 535.257812 " fill-opacity="1" fill-rule="nonzero"/></g><g clip-path="url(#id4)"><path fill="rgb(74.899292%, 59.999084%, 81.959534%)" d="M 628.355469 948.195312 L 154.945312 948.195312 C 147.199219 948.195312 140.925781 941.917969 140.925781 934.160156 C 140.925781 926.398438 147.199219 920.117188 154.945312 920.117188 L 628.355469 920.117188 C 636.105469 920.117188 642.378906 926.398438 642.378906 934.160156 C 642.378906 941.917969 636.105469 948.195312 628.355469 948.195312 " fill-opacity="1" fill-rule="nonzero"/></g><g clip-path="url(#id5)"><path fill="rgb(74.899292%, 59.999084%, 81.959534%)" d="M 628.355469 734.230469 L 154.945312 734.230469 C 147.199219 734.230469 140.925781 727.945312 140.925781 720.1875 C 140.925781 712.429688 147.199219 706.144531 154.945312 706.144531 L 628.355469 706.144531 C 636.105469 706.144531 642.378906 712.429688 642.378906 720.1875 C 642.378906 727.945312 636.105469 734.230469 628.355469 734.230469 " fill-opacity="1" fill-rule="nonzero"/></g><g clip-path="url(#id6)"><path fill="rgb(74.899292%, 59.999084%, 81.959534%)" d="M 628.355469 520.257812 L 154.945312 520.257812 C 147.199219 520.257812 140.925781 513.976562 140.925781 506.214844 C 140.925781 498.453125 147.199219 492.179688 154.945312 492.179688 L 628.355469 492.179688 C 636.105469 492.179688 642.378906 498.453125 642.378906 506.214844 C 642.378906 513.976562 636.105469 520.257812 628.355469 520.257812 " fill-opacity="1" fill-rule="nonzero"/></g></svg>