<svg xmlns="http://www.w3.org/2000/svg" xmlns:xlink="http://www.w3.org/1999/xlink" width="1080" zoomAndPan="magnify" viewBox="0 0 810 1439.999935" height="1920" preserveAspectRatio="xMidYMid meet" version="1.0"><defs><clipPath id="id1"><path d="M 20.183594 365.664062 L 809.929688 365.664062 L 809.929688 1155.414062 L 20.183594 1155.414062 Z M 20.183594 365.664062 " clip-rule="nonzero"/></clipPath><clipPath id="id2"><path d="M 0 345.484375 L 789.75 345.484375 L 789.75 1135.234375 L 0 1135.234375 Z M 0 345.484375 " clip-rule="nonzero"/></clipPath></defs><g clip-path="url(#id1)"><path fill="#393838" d="M 257.105469 997.464844 C 213.472656 997.464844 178.527344 1032.808594 178.527344 1076.441406 C 178.527344 1120.074219 213.472656 1155.414062 257.105469 1155.414062 C 300.742188 1155.414062 336.082031 1120.074219 336.082031 1076.441406 C 336.082031 1032.808594 300.742188 997.464844 257.105469 997.464844 Z M 20.183594 365.664062 L 20.183594 444.640625 L 99.15625 444.640625 L 241.113281 744.152344 L 187.804688 840.898438 C 181.683594 852.347656 178.132812 865.183594 178.132812 879.003906 C 178.132812 922.636719 213.472656 957.976562 257.105469 957.976562 L 730.957031 957.976562 L 730.957031 879.003906 L 273.890625 879.003906 C 268.359375 879.003906 264.015625 874.660156 264.015625 869.132812 C 264.015625 867.355469 264.410156 865.773438 265.203125 864.394531 L 300.542969 800.027344 L 594.726562 800.027344 C 624.339844 800.027344 650.203125 783.640625 663.828125 759.355469 L 804.996094 503.082031 C 808.15625 497.554688 809.929688 491.039062 809.929688 484.128906 C 809.929688 462.210938 792.164062 444.640625 770.445312 444.640625 L 186.621094 444.640625 L 149.109375 365.664062 Z M 651.980469 997.464844 C 608.347656 997.464844 573.402344 1032.808594 573.402344 1076.441406 C 573.402344 1120.074219 608.347656 1155.414062 651.980469 1155.414062 C 695.617188 1155.414062 730.957031 1120.074219 730.957031 1076.441406 C 730.957031 1032.808594 695.617188 997.464844 651.980469 997.464844 Z M 651.980469 997.464844 " fill-opacity="1" fill-rule="nonzero"/></g><g clip-path="url(#id2)"><path fill="#bf99d1" d="M 236.925781 977.285156 C 193.292969 977.285156 158.34375 1012.625 158.34375 1056.257812 C 158.34375 1099.890625 193.292969 1135.234375 236.925781 1135.234375 C 280.558594 1135.234375 315.898438 1099.890625 315.898438 1056.257812 C 315.898438 1012.625 280.558594 977.285156 236.925781 977.285156 Z M 0 345.484375 L 0 424.457031 L 78.976562 424.457031 L 220.933594 723.972656 L 167.625 820.714844 C 161.503906 832.167969 157.949219 845 157.949219 858.820312 C 157.949219 902.453125 193.292969 937.796875 236.925781 937.796875 L 710.773438 937.796875 L 710.773438 858.820312 L 253.707031 858.820312 C 248.179688 858.820312 243.835938 854.476562 243.835938 848.949219 C 243.835938 847.171875 244.230469 845.59375 245.019531 844.210938 L 280.359375 779.847656 L 574.542969 779.847656 C 604.160156 779.847656 630.023438 763.457031 643.644531 739.175781 L 784.8125 482.898438 C 787.972656 477.371094 789.75 470.855469 789.75 463.945312 C 789.75 442.03125 771.980469 424.457031 750.261719 424.457031 L 166.441406 424.457031 L 128.925781 345.484375 Z M 631.800781 977.285156 C 588.167969 977.285156 553.21875 1012.625 553.21875 1056.257812 C 553.21875 1099.890625 588.167969 1135.234375 631.800781 1135.234375 C 675.433594 1135.234375 710.773438 1099.890625 710.773438 1056.257812 C 710.773438 1012.625 675.433594 977.285156 631.800781 977.285156 Z M 631.800781 977.285156 " fill-opacity="1" fill-rule="nonzero"/></g></svg>