<svg xmlns="http://www.w3.org/2000/svg" xmlns:xlink="http://www.w3.org/1999/xlink" width="1080" zoomAndPan="magnify" viewBox="0 0 810 1439.999935" height="1920" preserveAspectRatio="xMidYMid meet" version="1.0"><defs><clipPath id="id1"><path d="M 96 441.484375 L 683.25 441.484375 L 683.25 1028.734375 L 96 1028.734375 Z M 96 441.484375 " clip-rule="nonzero"/></clipPath><clipPath id="id2"><path d="M 81 426.484375 L 668.25 426.484375 L 668.25 1013.734375 L 81 1013.734375 Z M 81 426.484375 " clip-rule="nonzero"/></clipPath></defs><g clip-path="url(#id1)"><path fill="rgb(22.349548%, 21.958923%, 21.958923%)" d="M 272.175781 911.285156 C 239.730469 911.285156 213.742188 937.5625 213.742188 970.007812 C 213.742188 1002.453125 239.730469 1028.734375 272.175781 1028.734375 C 304.621094 1028.734375 330.898438 1002.453125 330.898438 970.007812 C 330.898438 937.5625 304.621094 911.285156 272.175781 911.285156 Z M 96 441.484375 L 96 500.207031 L 154.726562 500.207031 L 260.285156 722.921875 L 220.644531 794.863281 C 216.09375 803.375 213.449219 812.917969 213.449219 823.195312 C 213.449219 855.640625 239.730469 881.921875 272.175781 881.921875 L 624.523438 881.921875 L 624.523438 823.195312 L 284.652344 823.195312 C 280.542969 823.195312 277.3125 819.964844 277.3125 815.855469 C 277.3125 814.535156 277.605469 813.359375 278.195312 812.332031 L 304.472656 764.472656 L 523.222656 764.472656 C 545.246094 764.472656 564.480469 752.285156 574.609375 734.226562 L 679.578125 543.664062 C 681.929688 539.554688 683.25 534.710938 683.25 529.570312 C 683.25 513.273438 670.035156 500.207031 653.886719 500.207031 L 219.761719 500.207031 L 191.867188 441.484375 Z M 565.800781 911.285156 C 533.355469 911.285156 507.367188 937.5625 507.367188 970.007812 C 507.367188 1002.453125 533.355469 1028.734375 565.800781 1028.734375 C 598.246094 1028.734375 624.523438 1002.453125 624.523438 970.007812 C 624.523438 937.5625 598.246094 911.285156 565.800781 911.285156 Z M 565.800781 911.285156 " fill-opacity="1" fill-rule="nonzero"/></g><g clip-path="url(#id2)"><path fill="rgb(74.899292%, 59.999084%, 81.959534%)" d="M 257.175781 896.285156 C 224.730469 896.285156 198.742188 922.5625 198.742188 955.007812 C 198.742188 987.453125 224.730469 1013.734375 257.175781 1013.734375 C 289.621094 1013.734375 315.898438 987.453125 315.898438 955.007812 C 315.898438 922.5625 289.621094 896.285156 257.175781 896.285156 Z M 81 426.484375 L 81 485.207031 L 139.726562 485.207031 L 245.285156 707.921875 L 205.644531 779.863281 C 201.09375 788.375 198.449219 797.917969 198.449219 808.195312 C 198.449219 840.640625 224.730469 866.921875 257.175781 866.921875 L 609.523438 866.921875 L 609.523438 808.195312 L 269.652344 808.195312 C 265.542969 808.195312 262.3125 804.964844 262.3125 800.855469 C 262.3125 799.535156 262.605469 798.359375 263.195312 797.332031 L 289.472656 749.472656 L 508.222656 749.472656 C 530.246094 749.472656 549.480469 737.285156 559.609375 719.226562 L 664.578125 528.664062 C 666.929688 524.554688 668.25 519.710938 668.25 514.570312 C 668.25 498.273438 655.035156 485.207031 638.886719 485.207031 L 204.761719 485.207031 L 176.867188 426.484375 Z M 550.800781 896.285156 C 518.355469 896.285156 492.367188 922.5625 492.367188 955.007812 C 492.367188 987.453125 518.355469 1013.734375 550.800781 1013.734375 C 583.246094 1013.734375 609.523438 987.453125 609.523438 955.007812 C 609.523438 922.5625 583.246094 896.285156 550.800781 896.285156 Z M 550.800781 896.285156 " fill-opacity="1" fill-rule="nonzero"/></g></svg>