<svg xmlns="http://www.w3.org/2000/svg" xmlns:xlink="http://www.w3.org/1999/xlink" width="1080" zoomAndPan="magnify" viewBox="0 0 810 1439.999935" height="1920" preserveAspectRatio="xMidYMid meet" version="1.0"><defs><clipPath id="id1"><path d="M 25.816406 332 L 810 332 L 810 1114 L 25.816406 1114 Z M 25.816406 332 " clip-rule="nonzero"/></clipPath><clipPath id="id2"><path d="M 0 306 L 784.5 306 L 784.5 1088 L 0 1088 Z M 0 306 " clip-rule="nonzero"/></clipPath></defs><g clip-path="url(#id1)"><path fill="#393838" d="M 418.066406 332.761719 C 201.425781 332.761719 25.816406 508.371094 25.816406 725.011719 C 25.816406 921.679688 170.675781 1084.042969 359.441406 1112.40625 L 359.441406 828.960938 L 262.375 828.960938 L 262.375 725.859375 L 359.441406 725.859375 L 359.441406 657.242188 C 359.441406 543.640625 414.777344 493.796875 509.1875 493.796875 C 554.386719 493.796875 578.316406 497.144531 589.628906 498.683594 L 589.628906 588.691406 L 525.242188 588.691406 C 485.171875 588.691406 471.171875 626.679688 471.171875 669.523438 L 471.171875 725.886719 L 588.636719 725.886719 L 572.703125 828.988281 L 471.171875 828.988281 L 471.171875 1113.28125 C 662.621094 1087.269531 810.316406 923.582031 810.316406 725.011719 C 810.316406 508.371094 634.710938 332.761719 418.066406 332.761719 Z M 418.066406 332.761719 " fill-opacity="1" fill-rule="nonzero"/></g><g clip-path="url(#id2)"><path fill="#bf99d1" d="M 392.25 306.945312 C 175.605469 306.945312 0 482.554688 0 699.195312 C 0 895.863281 144.859375 1058.226562 333.625 1086.589844 L 333.625 803.140625 L 236.558594 803.140625 L 236.558594 700.039062 L 333.625 700.039062 L 333.625 631.425781 C 333.625 517.824219 388.960938 467.980469 483.371094 467.980469 C 528.570312 467.980469 552.5 471.328125 563.8125 472.867188 L 563.8125 562.875 L 499.425781 562.875 C 459.355469 562.875 445.355469 600.863281 445.355469 643.707031 L 445.355469 700.070312 L 562.820312 700.070312 L 546.886719 803.171875 L 445.355469 803.171875 L 445.355469 1087.464844 C 636.804688 1061.453125 784.5 897.765625 784.5 699.195312 C 784.5 482.554688 608.894531 306.945312 392.25 306.945312 Z M 392.25 306.945312 " fill-opacity="1" fill-rule="nonzero"/></g></svg>