<svg xmlns="http://www.w3.org/2000/svg" xmlns:xlink="http://www.w3.org/1999/xlink" width="1080" zoomAndPan="magnify" viewBox="0 0 810 1439.999935" height="1920" preserveAspectRatio="xMidYMid meet" version="1.0"><defs><clipPath id="id1"><path d="M 201.75 508 L 657.75 508 L 657.75 962 L 201.75 962 Z M 201.75 508 " clip-rule="nonzero"/></clipPath><clipPath id="id2"><path d="M 186.75 493 L 642.75 493 L 642.75 947 L 186.75 947 Z M 186.75 493 " clip-rule="nonzero"/></clipPath></defs><g clip-path="url(#id1)"><path fill="rgb(22.349548%, 21.958923%, 21.958923%)" d="M 429.75 508.0625 C 303.824219 508.0625 201.75 610.136719 201.75 736.0625 C 201.75 850.378906 285.953125 944.753906 395.671875 961.242188 L 395.671875 796.484375 L 339.25 796.484375 L 339.25 736.554688 L 395.671875 736.554688 L 395.671875 696.671875 C 395.671875 630.640625 427.839844 601.667969 482.714844 601.667969 C 508.988281 601.667969 522.898438 603.613281 529.472656 604.507812 L 529.472656 656.824219 L 492.046875 656.824219 C 468.753906 656.824219 460.617188 678.90625 460.617188 703.8125 L 460.617188 736.574219 L 528.894531 736.574219 L 519.632812 796.5 L 460.617188 796.5 L 460.617188 961.75 C 571.898438 946.632812 657.75 851.484375 657.75 736.0625 C 657.75 610.136719 555.675781 508.0625 429.75 508.0625 Z M 429.75 508.0625 " fill-opacity="1" fill-rule="nonzero"/></g><g clip-path="url(#id2)"><path fill="rgb(74.899292%, 59.999084%, 81.959534%)" d="M 414.75 493.0625 C 288.824219 493.0625 186.75 595.136719 186.75 721.0625 C 186.75 835.378906 270.953125 929.753906 380.671875 946.242188 L 380.671875 781.484375 L 324.25 781.484375 L 324.25 721.554688 L 380.671875 721.554688 L 380.671875 681.671875 C 380.671875 615.640625 412.839844 586.667969 467.714844 586.667969 C 493.988281 586.667969 507.898438 588.613281 514.472656 589.507812 L 514.472656 641.824219 L 477.046875 641.824219 C 453.753906 641.824219 445.617188 663.90625 445.617188 688.8125 L 445.617188 721.574219 L 513.894531 721.574219 L 504.632812 781.5 L 445.617188 781.5 L 445.617188 946.75 C 556.898438 931.632812 642.75 836.484375 642.75 721.0625 C 642.75 595.136719 540.675781 493.0625 414.75 493.0625 Z M 414.75 493.0625 " fill-opacity="1" fill-rule="nonzero"/></g></svg>