<svg xmlns="http://www.w3.org/2000/svg" xmlns:xlink="http://www.w3.org/1999/xlink" width="500" zoomAndPan="magnify" viewBox="0 0 375 374.999991" height="500" preserveAspectRatio="xMidYMid meet" version="1.0"><path fill="#8b73ff" d="M 30.199219 154.871094 C 30.199219 248.714844 198.464844 363.171875 198.464844 363.171875 C 198.464844 363.171875 365.988281 247.90625 366.726562 154.871094 C 366.726562 106.835938 327.625 67.695312 279.632812 67.695312 C 242.75 67.695312 210.984375 91.34375 198.464844 123.816406 C 185.945312 91.34375 154.175781 67.695312 117.292969 67.695312 C 69.304688 67.695312 30.199219 106.835938 30.199219 154.871094 " fill-opacity="1" fill-rule="nonzero"/><path fill="#e1a3ff" d="M 0.00390625 124.675781 C 0.00390625 218.519531 168.265625 332.976562 168.265625 332.976562 C 168.265625 332.976562 335.789062 217.710938 336.53125 124.675781 C 336.53125 76.640625 297.425781 37.5 249.4375 37.5 C 212.554688 37.5 180.785156 61.144531 168.265625 93.617188 C 155.746094 61.144531 123.980469 37.5 87.097656 37.5 C 39.105469 37.5 0.00390625 76.640625 0.00390625 124.675781 " fill-opacity="1" fill-rule="nonzero"/></svg>