<svg xmlns="http://www.w3.org/2000/svg" xmlns:xlink="http://www.w3.org/1999/xlink" width="1920" zoomAndPan="magnify" viewBox="0 0 1440 809.999993" height="1080" preserveAspectRatio="xMidYMid meet" version="1.0"><path fill="rgb(0%, 0%, 0%)" d="M 737 1.558594 C 513.316406 1.558594 332 182.875 332 406.558594 C 332 609.617188 481.570312 777.257812 676.46875 806.542969 L 676.46875 513.882812 L 576.246094 513.882812 L 576.246094 407.429688 L 676.46875 407.429688 L 676.46875 336.585938 C 676.46875 219.292969 733.605469 167.824219 831.085938 167.824219 C 877.753906 167.824219 902.457031 171.285156 914.140625 172.871094 L 914.140625 265.804688 L 847.660156 265.804688 C 806.285156 265.804688 791.832031 305.027344 791.832031 349.265625 L 791.832031 407.460938 L 913.113281 407.460938 L 896.664062 513.914062 L 791.832031 513.914062 L 791.832031 807.445312 C 989.5 780.589844 1142 611.582031 1142 406.558594 C 1142 182.875 960.683594 1.558594 737 1.558594 Z M 737 1.558594 " fill-opacity="1" fill-rule="nonzero"/></svg>