<svg xmlns="http://www.w3.org/2000/svg" xmlns:xlink="http://www.w3.org/1999/xlink" width="1920" zoomAndPan="magnify" viewBox="0 0 1440 809.999993" height="1080" preserveAspectRatio="xMidYMid meet" version="1.0"><path fill="rgb(0%, 0%, 0%)" d="M 535.167969 0 C 404.433594 0 297 107.289062 297 238.167969 L 297 571.832031 C 297 702.566406 404.289062 810 535.167969 810 L 868.832031 810 C 999.566406 810 1107 702.710938 1107 571.832031 L 1107 238.167969 C 1107 107.433594 999.710938 0 868.832031 0 Z M 535.167969 73.636719 L 868.832031 73.636719 C 959.871094 73.636719 1033.363281 147.128906 1033.363281 238.167969 L 1033.363281 571.832031 C 1033.363281 662.871094 959.871094 736.363281 868.832031 736.363281 L 535.167969 736.363281 C 444.128906 736.363281 370.636719 662.871094 370.636719 571.832031 L 370.636719 238.167969 C 370.636719 147.128906 444.128906 73.636719 535.167969 73.636719 Z M 919.457031 154.175781 C 900.90625 154.175781 886.089844 168.988281 886.089844 187.542969 C 886.089844 206.09375 900.90625 220.910156 919.457031 220.910156 C 938.011719 220.910156 952.824219 206.09375 952.824219 187.542969 C 952.824219 168.988281 938.011719 154.175781 919.457031 154.175781 Z M 702 184.089844 C 580.472656 184.089844 481.089844 283.472656 481.089844 405 C 481.089844 526.527344 580.472656 625.910156 702 625.910156 C 823.527344 625.910156 922.910156 526.527344 922.910156 405 C 922.910156 283.472656 823.527344 184.089844 702 184.089844 Z M 702 257.726562 C 783.835938 257.726562 849.273438 323.164062 849.273438 405 C 849.273438 486.835938 783.835938 552.273438 702 552.273438 C 620.164062 552.273438 554.726562 486.835938 554.726562 405 C 554.726562 323.164062 620.164062 257.726562 702 257.726562 Z M 702 257.726562 " fill-opacity="1" fill-rule="nonzero"/></svg>