<svg xmlns="http://www.w3.org/2000/svg" xmlns:xlink="http://www.w3.org/1999/xlink" width="1080" zoomAndPan="magnify" viewBox="0 0 810 1439.999935" height="1920" preserveAspectRatio="xMidYMid meet" version="1.0"><defs><clipPath id="id1"><path d="M 25.816406 350.941406 L 810 350.941406 L 810 1135.441406 L 25.816406 1135.441406 Z M 25.816406 350.941406 " clip-rule="nonzero"/></clipPath><clipPath id="id2"><path d="M 0 325.125 L 784.5 325.125 L 784.5 1109.625 L 0 1109.625 Z M 0 325.125 " clip-rule="nonzero"/></clipPath></defs><g clip-path="url(#id1)"><path fill="#393838" d="M 256.488281 350.941406 C 129.867188 350.941406 25.816406 454.855469 25.816406 581.613281 L 25.816406 904.773438 C 25.816406 1031.390625 129.730469 1135.441406 256.488281 1135.441406 L 579.648438 1135.441406 C 706.265625 1135.441406 810.316406 1031.527344 810.316406 904.773438 L 810.316406 581.613281 C 810.316406 454.992188 706.402344 350.941406 579.648438 350.941406 Z M 256.488281 422.261719 L 579.648438 422.261719 C 667.820312 422.261719 739 493.4375 739 581.613281 L 739 904.773438 C 739 992.945312 667.820312 1064.125 579.648438 1064.125 L 256.488281 1064.125 C 168.3125 1064.125 97.136719 992.945312 97.136719 904.773438 L 97.136719 581.613281 C 97.136719 493.4375 168.3125 422.261719 256.488281 422.261719 Z M 628.679688 500.265625 C 610.710938 500.265625 596.363281 514.613281 596.363281 532.582031 C 596.363281 550.550781 610.710938 564.894531 628.679688 564.894531 C 646.648438 564.894531 660.996094 550.550781 660.996094 532.582031 C 660.996094 514.613281 646.648438 500.265625 628.679688 500.265625 Z M 418.066406 529.238281 C 300.363281 529.238281 204.113281 625.488281 204.113281 743.191406 C 204.113281 860.894531 300.363281 957.144531 418.066406 957.144531 C 535.769531 957.144531 632.019531 860.894531 632.019531 743.191406 C 632.019531 625.488281 535.769531 529.238281 418.066406 529.238281 Z M 418.066406 600.554688 C 497.324219 600.554688 560.703125 663.933594 560.703125 743.191406 C 560.703125 822.449219 497.324219 885.828125 418.066406 885.828125 C 338.808594 885.828125 275.429688 822.449219 275.429688 743.191406 C 275.429688 663.933594 338.808594 600.554688 418.066406 600.554688 Z M 418.066406 600.554688 " fill-opacity="1" fill-rule="nonzero"/></g><g clip-path="url(#id2)"><path fill="#bf99d1" d="M 230.667969 325.125 C 104.050781 325.125 0 429.039062 0 555.792969 L 0 878.957031 C 0 1005.574219 103.914062 1109.625 230.667969 1109.625 L 553.832031 1109.625 C 680.449219 1109.625 784.5 1005.710938 784.5 878.957031 L 784.5 555.792969 C 784.5 429.175781 680.585938 325.125 553.832031 325.125 Z M 230.667969 396.441406 L 553.832031 396.441406 C 642.003906 396.441406 713.183594 467.621094 713.183594 555.792969 L 713.183594 878.957031 C 713.183594 967.128906 642.003906 1038.308594 553.832031 1038.308594 L 230.667969 1038.308594 C 142.496094 1038.308594 71.316406 967.128906 71.316406 878.957031 L 71.316406 555.792969 C 71.316406 467.621094 142.496094 396.441406 230.667969 396.441406 Z M 602.863281 474.449219 C 584.894531 474.449219 570.546875 488.792969 570.546875 506.761719 C 570.546875 524.730469 584.894531 539.078125 602.863281 539.078125 C 620.832031 539.078125 635.175781 524.730469 635.175781 506.761719 C 635.175781 488.792969 620.832031 474.449219 602.863281 474.449219 Z M 392.25 503.421875 C 274.546875 503.421875 178.296875 599.671875 178.296875 717.375 C 178.296875 835.078125 274.546875 931.328125 392.25 931.328125 C 509.953125 931.328125 606.203125 835.078125 606.203125 717.375 C 606.203125 599.671875 509.953125 503.421875 392.25 503.421875 Z M 392.25 574.738281 C 471.507812 574.738281 534.886719 638.117188 534.886719 717.375 C 534.886719 796.632812 471.507812 860.011719 392.25 860.011719 C 312.992188 860.011719 249.613281 796.632812 249.613281 717.375 C 249.613281 638.117188 312.992188 574.738281 392.25 574.738281 Z M 392.25 574.738281 " fill-opacity="1" fill-rule="nonzero"/></g></svg>