<svg xmlns="http://www.w3.org/2000/svg" xmlns:xlink="http://www.w3.org/1999/xlink" width="1080" zoomAndPan="magnify" viewBox="0 0 810 1439.999935" height="1920" preserveAspectRatio="xMidYMid meet" version="1.0"><defs><clipPath id="id1"><path d="M 182.0625 507.1875 L 638.0625 507.1875 L 638.0625 963.1875 L 182.0625 963.1875 Z M 182.0625 507.1875 " clip-rule="nonzero"/></clipPath><clipPath id="id2"><path d="M 167.0625 492.1875 L 623.0625 492.1875 L 623.0625 948.1875 L 167.0625 948.1875 Z M 167.0625 492.1875 " clip-rule="nonzero"/></clipPath></defs><g clip-path="url(#id1)"><path fill="rgb(22.349548%, 21.958923%, 21.958923%)" d="M 316.140625 507.1875 C 242.542969 507.1875 182.0625 567.589844 182.0625 641.265625 L 182.0625 829.109375 C 182.0625 902.707031 242.464844 963.1875 316.140625 963.1875 L 503.984375 963.1875 C 577.582031 963.1875 638.0625 902.785156 638.0625 829.109375 L 638.0625 641.265625 C 638.0625 567.667969 577.660156 507.1875 503.984375 507.1875 Z M 316.140625 548.640625 L 503.984375 548.640625 C 555.234375 548.640625 596.609375 590.015625 596.609375 641.265625 L 596.609375 829.109375 C 596.609375 880.359375 555.234375 921.734375 503.984375 921.734375 L 316.140625 921.734375 C 264.890625 921.734375 223.515625 880.359375 223.515625 829.109375 L 223.515625 641.265625 C 223.515625 590.015625 264.890625 548.640625 316.140625 548.640625 Z M 532.484375 593.984375 C 522.039062 593.984375 513.699219 602.324219 513.699219 612.765625 C 513.699219 623.210938 522.039062 631.550781 532.484375 631.550781 C 542.925781 631.550781 551.265625 623.210938 551.265625 612.765625 C 551.265625 602.324219 542.925781 593.984375 532.484375 593.984375 Z M 410.0625 610.824219 C 341.644531 610.824219 285.699219 666.769531 285.699219 735.1875 C 285.699219 803.605469 341.644531 859.550781 410.0625 859.550781 C 478.480469 859.550781 534.425781 803.605469 534.425781 735.1875 C 534.425781 666.769531 478.480469 610.824219 410.0625 610.824219 Z M 410.0625 652.277344 C 456.132812 652.277344 492.972656 689.117188 492.972656 735.1875 C 492.972656 781.257812 456.132812 818.097656 410.0625 818.097656 C 363.992188 818.097656 327.152344 781.257812 327.152344 735.1875 C 327.152344 689.117188 363.992188 652.277344 410.0625 652.277344 Z M 410.0625 652.277344 " fill-opacity="1" fill-rule="nonzero"/></g><g clip-path="url(#id2)"><path fill="rgb(74.899292%, 59.999084%, 81.959534%)" d="M 301.140625 492.1875 C 227.542969 492.1875 167.0625 552.589844 167.0625 626.265625 L 167.0625 814.109375 C 167.0625 887.707031 227.464844 948.1875 301.140625 948.1875 L 488.984375 948.1875 C 562.582031 948.1875 623.0625 887.785156 623.0625 814.109375 L 623.0625 626.265625 C 623.0625 552.667969 562.660156 492.1875 488.984375 492.1875 Z M 301.140625 533.640625 L 488.984375 533.640625 C 540.234375 533.640625 581.609375 575.015625 581.609375 626.265625 L 581.609375 814.109375 C 581.609375 865.359375 540.234375 906.734375 488.984375 906.734375 L 301.140625 906.734375 C 249.890625 906.734375 208.515625 865.359375 208.515625 814.109375 L 208.515625 626.265625 C 208.515625 575.015625 249.890625 533.640625 301.140625 533.640625 Z M 517.484375 578.984375 C 507.039062 578.984375 498.699219 587.324219 498.699219 597.765625 C 498.699219 608.210938 507.039062 616.550781 517.484375 616.550781 C 527.925781 616.550781 536.265625 608.210938 536.265625 597.765625 C 536.265625 587.324219 527.925781 578.984375 517.484375 578.984375 Z M 395.0625 595.824219 C 326.644531 595.824219 270.699219 651.769531 270.699219 720.1875 C 270.699219 788.605469 326.644531 844.550781 395.0625 844.550781 C 463.480469 844.550781 519.425781 788.605469 519.425781 720.1875 C 519.425781 651.769531 463.480469 595.824219 395.0625 595.824219 Z M 395.0625 637.277344 C 441.132812 637.277344 477.972656 674.117188 477.972656 720.1875 C 477.972656 766.257812 441.132812 803.097656 395.0625 803.097656 C 348.992188 803.097656 312.152344 766.257812 312.152344 720.1875 C 312.152344 674.117188 348.992188 637.277344 395.0625 637.277344 Z M 395.0625 637.277344 " fill-opacity="1" fill-rule="nonzero"/></g></svg>