<svg xmlns="http://www.w3.org/2000/svg" xmlns:xlink="http://www.w3.org/1999/xlink" width="500" zoomAndPan="magnify" viewBox="0 0 375 374.999991" height="500" preserveAspectRatio="xMidYMid meet" version="1.0"><defs><filter x="0%" y="0%" width="100%" height="100%" id="id1"><feColorMatrix values="0 0 0 0 1 0 0 0 0 1 0 0 0 0 1 0 0 0 1 0" color-interpolation-filters="sRGB"/></filter><g/><mask id="id2"><g filter="url(#id1)"><rect x="-37.5" width="450" fill="rgb(0%, 0%, 0%)" y="-37.499999" height="449.999989" fill-opacity="0.9686"/></g></mask><clipPath id="id3"><rect x="0" width="312" y="0" height="90"/></clipPath></defs><g mask="url(#id2)"><g transform="matrix(1, 0, 0, 1, 32, 103)"><g clip-path="url(#id3)"><g fill="rgb(69.018555%, 47.059631%, 90.979004%)" fill-opacity="1"><g transform="translate(0.801992, 71.54172)"><g><path d="M 3.375 -54.734375 L 17.625 -54.734375 L 17.625 -16.640625 C 17.625 -13.640625 18.847656 -12.140625 21.296875 -12.140625 C 21.898438 -12.140625 22.550781 -12.238281 23.25 -12.4375 C 23.945312 -12.644531 24.59375 -12.921875 25.1875 -13.265625 L 27 -1.796875 C 25.289062 -0.992188 23.375 -0.367188 21.25 0.078125 C 19.132812 0.523438 17.125 0.75 15.21875 0.75 C 11.414062 0.75 8.488281 -0.222656 6.4375 -2.171875 C 4.394531 -4.117188 3.375 -6.941406 3.375 -10.640625 Z M 3.375 -54.734375 "/></g></g></g><g fill="rgb(69.018555%, 47.059631%, 90.979004%)" fill-opacity="1"><g transform="translate(28.020884, 71.54172)"><g><path d="M 3.59375 0 L 3.59375 -39.4375 L 17.84375 -39.4375 L 17.84375 0 Z M 3.59375 -42.734375 L 3.59375 -54.734375 L 17.84375 -54.734375 L 17.84375 -42.734375 Z M 3.59375 -42.734375 "/></g></g></g><g fill="rgb(69.018555%, 47.059631%, 90.979004%)" fill-opacity="1"><g transform="translate(49.466076, 71.54172)"><g><path d="M 43.265625 0 L 29.015625 0 L 29.015625 -22.203125 C 29.015625 -24.148438 28.578125 -25.5625 27.703125 -26.4375 C 26.828125 -27.3125 25.816406 -27.75 24.671875 -27.75 C 23.472656 -27.75 22.195312 -27.222656 20.84375 -26.171875 C 19.5 -25.117188 18.5 -23.769531 17.84375 -22.125 L 17.84375 0 L 3.59375 0 L 3.59375 -39.4375 L 16.421875 -39.4375 L 16.421875 -33.59375 C 17.816406 -35.738281 19.773438 -37.375 22.296875 -38.5 C 24.828125 -39.625 27.816406 -40.1875 31.265625 -40.1875 C 33.960938 -40.1875 36.097656 -39.695312 37.671875 -38.71875 C 39.253906 -37.75 40.457031 -36.539062 41.28125 -35.09375 C 42.101562 -33.644531 42.640625 -32.09375 42.890625 -30.4375 C 43.140625 -28.789062 43.265625 -27.289062 43.265625 -25.9375 Z M 43.265625 0 "/></g></g></g><g fill="rgb(69.018555%, 47.059631%, 90.979004%)" fill-opacity="1"><g transform="translate(96.030626, 71.54172)"><g><path d="M 20.09375 0.75 C 17.394531 0.75 14.90625 0.25 12.625 -0.75 C 10.351562 -1.75 8.394531 -3.160156 6.75 -4.984375 C 5.101562 -6.804688 3.816406 -8.976562 2.890625 -11.5 C 1.960938 -14.03125 1.5 -16.796875 1.5 -19.796875 C 1.5 -22.691406 1.921875 -25.390625 2.765625 -27.890625 C 3.617188 -30.390625 4.804688 -32.550781 6.328125 -34.375 C 7.859375 -36.207031 9.671875 -37.632812 11.765625 -38.65625 C 13.867188 -39.675781 16.195312 -40.1875 18.75 -40.1875 C 21.289062 -40.1875 23.625 -39.613281 25.75 -38.46875 C 27.875 -37.320312 29.515625 -35.695312 30.671875 -33.59375 L 30.671875 -54.734375 L 44.921875 -54.734375 L 44.921875 -15.75 C 44.921875 -14.394531 45.171875 -13.453125 45.671875 -12.921875 C 46.171875 -12.398438 47.066406 -12.09375 48.359375 -12 L 48.359375 0 C 46.910156 0.25 45.632812 0.4375 44.53125 0.5625 C 43.4375 0.6875 42.460938 0.75 41.609375 0.75 C 36.765625 0.75 33.96875 -1.070312 33.21875 -4.71875 L 32.921875 -6.15625 C 31.566406 -3.75 29.738281 -1.992188 27.4375 -0.890625 C 25.144531 0.203125 22.695312 0.75 20.09375 0.75 Z M 24 -11.25 C 26.59375 -11.25 28.84375 -12.597656 30.75 -15.296875 L 30.75 -22.34375 C 30.039062 -24.09375 29.007812 -25.503906 27.65625 -26.578125 C 26.3125 -27.648438 24.890625 -28.1875 23.390625 -28.1875 C 22.347656 -28.1875 21.390625 -27.960938 20.515625 -27.515625 C 19.640625 -27.066406 18.890625 -26.441406 18.265625 -25.640625 C 17.640625 -24.835938 17.140625 -23.910156 16.765625 -22.859375 C 16.390625 -21.816406 16.203125 -20.695312 16.203125 -19.5 C 16.203125 -17 16.910156 -15 18.328125 -13.5 C 19.753906 -12 21.644531 -11.25 24 -11.25 Z M 24 -11.25 "/></g></g></g><g fill="rgb(69.018555%, 47.059631%, 90.979004%)" fill-opacity="1"><g transform="translate(146.419321, 71.54172)"><g><path d="M 15.59375 0.75 C 11.59375 0.75 8.539062 -0.460938 6.4375 -2.890625 C 4.34375 -5.316406 3.296875 -8.851562 3.296875 -13.5 L 3.296875 -39.4375 L 17.546875 -39.4375 L 17.546875 -16.71875 C 17.546875 -14.96875 17.929688 -13.617188 18.703125 -12.671875 C 19.484375 -11.722656 20.546875 -11.25 21.890625 -11.25 C 22.992188 -11.25 24.117188 -11.5 25.265625 -12 C 26.421875 -12.5 27.570312 -13.597656 28.71875 -15.296875 L 28.71875 -39.4375 L 42.96875 -39.4375 L 42.96875 -15.75 C 42.96875 -14.394531 43.21875 -13.453125 43.71875 -12.921875 C 44.21875 -12.398438 45.117188 -12.09375 46.421875 -12 L 46.421875 0 C 44.960938 0.25 43.679688 0.4375 42.578125 0.5625 C 41.484375 0.6875 40.515625 0.75 39.671875 0.75 C 34.816406 0.75 32.015625 -1.070312 31.265625 -4.71875 L 30.96875 -6.15625 C 29.113281 -3.695312 26.910156 -1.929688 24.359375 -0.859375 C 21.816406 0.210938 18.894531 0.75 15.59375 0.75 Z M 15.59375 0.75 "/></g></g></g><g fill="rgb(69.018555%, 47.059631%, 90.979004%)" fill-opacity="1"><g transform="translate(194.858461, 71.54172)"><g><path d="M 30.375 -27.296875 C 27.625 -27.296875 25.125 -26.992188 22.875 -26.390625 C 20.625 -25.796875 18.945312 -24.796875 17.84375 -23.390625 L 17.84375 0 L 3.59375 0 L 3.59375 -39.4375 L 16.640625 -39.4375 L 16.640625 -31.9375 C 18.046875 -34.59375 19.785156 -36.628906 21.859375 -38.046875 C 23.929688 -39.472656 26.164062 -40.1875 28.5625 -40.1875 C 29.519531 -40.1875 30.125 -40.160156 30.375 -40.109375 Z M 30.375 -27.296875 "/></g></g></g><g fill="rgb(69.018555%, 47.059631%, 90.979004%)" fill-opacity="1"><g transform="translate(226.126432, 71.54172)"><g><path d="M 15.21875 0.75 C 13.269531 0.75 11.445312 0.425781 9.75 -0.21875 C 8.050781 -0.875 6.585938 -1.765625 5.359375 -2.890625 C 4.140625 -4.015625 3.175781 -5.347656 2.46875 -6.890625 C 1.769531 -8.441406 1.421875 -10.117188 1.421875 -11.921875 C 1.421875 -13.921875 1.84375 -15.742188 2.6875 -17.390625 C 3.539062 -19.046875 4.71875 -20.472656 6.21875 -21.671875 C 7.71875 -22.867188 9.503906 -23.789062 11.578125 -24.4375 C 13.660156 -25.09375 15.953125 -25.421875 18.453125 -25.421875 C 21.648438 -25.421875 24.296875 -24.921875 26.390625 -23.921875 L 26.390625 -25.125 C 26.390625 -26.96875 25.851562 -28.335938 24.78125 -29.234375 C 23.707031 -30.140625 21.972656 -30.59375 19.578125 -30.59375 C 17.328125 -30.59375 15.25 -30.226562 13.34375 -29.5 C 11.445312 -28.78125 9.445312 -27.71875 7.34375 -26.3125 L 3.21875 -35.171875 C 8.414062 -38.515625 14.34375 -40.1875 21 -40.1875 C 27.289062 -40.1875 32.132812 -38.785156 35.53125 -35.984375 C 38.9375 -33.191406 40.640625 -28.992188 40.640625 -23.390625 L 40.640625 -15.75 C 40.640625 -14.394531 40.890625 -13.453125 41.390625 -12.921875 C 41.890625 -12.398438 42.789062 -12.09375 44.09375 -12 L 44.09375 0 C 42.789062 0.25 41.5625 0.4375 40.40625 0.5625 C 39.257812 0.6875 38.238281 0.75 37.34375 0.75 C 34.789062 0.75 32.851562 0.285156 31.53125 -0.640625 C 30.207031 -1.566406 29.34375 -2.925781 28.9375 -4.71875 L 28.640625 -6.15625 C 26.890625 -3.90625 24.863281 -2.191406 22.5625 -1.015625 C 20.269531 0.160156 17.820312 0.75 15.21875 0.75 Z M 19.5 -9.453125 C 20.34375 -9.453125 21.210938 -9.585938 22.109375 -9.859375 C 23.015625 -10.128906 23.816406 -10.492188 24.515625 -10.953125 C 25.066406 -11.347656 25.515625 -11.78125 25.859375 -12.25 C 26.210938 -12.726562 26.390625 -13.21875 26.390625 -13.71875 L 26.390625 -16.640625 C 25.546875 -16.941406 24.625 -17.191406 23.625 -17.390625 C 22.625 -17.597656 21.722656 -17.703125 20.921875 -17.703125 C 19.171875 -17.703125 17.71875 -17.273438 16.5625 -16.421875 C 15.414062 -15.566406 14.84375 -14.492188 14.84375 -13.203125 C 14.84375 -12.097656 15.28125 -11.195312 16.15625 -10.5 C 17.03125 -9.800781 18.144531 -9.453125 19.5 -9.453125 Z M 19.5 -9.453125 "/></g></g></g><g fill="rgb(69.018555%, 47.059631%, 90.979004%)" fill-opacity="1"><g transform="translate(271.41626, 71.54172)"><g><path d="M 21.140625 0.75 C 19.492188 0.75 17.71875 0.625 15.8125 0.375 C 13.914062 0.125 12.054688 -0.195312 10.234375 -0.59375 C 8.410156 -1 6.648438 -1.488281 4.953125 -2.0625 C 3.253906 -2.632812 1.78125 -3.269531 0.53125 -3.96875 L 6 -13.640625 C 8.75 -12.191406 11.375 -11.09375 13.875 -10.34375 C 16.375 -9.59375 18.695312 -9.21875 20.84375 -9.21875 C 23.34375 -9.21875 24.59375 -9.84375 24.59375 -11.09375 C 24.59375 -11.75 24.09375 -12.328125 23.09375 -12.828125 C 22.09375 -13.328125 20.191406 -13.925781 17.390625 -14.625 C 14.597656 -15.375 12.25 -16.125 10.34375 -16.875 C 8.445312 -17.625 6.921875 -18.457031 5.765625 -19.375 C 4.617188 -20.300781 3.796875 -21.328125 3.296875 -22.453125 C 2.796875 -23.578125 2.546875 -24.890625 2.546875 -26.390625 C 2.546875 -28.390625 2.957031 -30.238281 3.78125 -31.9375 C 4.613281 -33.644531 5.773438 -35.117188 7.265625 -36.359375 C 8.765625 -37.609375 10.550781 -38.570312 12.625 -39.25 C 14.707031 -39.925781 16.972656 -40.265625 19.421875 -40.265625 C 22.066406 -40.265625 24.898438 -39.890625 27.921875 -39.140625 C 30.953125 -38.390625 34.039062 -37.289062 37.1875 -35.84375 L 31.71875 -26.765625 C 28.914062 -28.066406 26.585938 -29.003906 24.734375 -29.578125 C 22.890625 -30.148438 21.117188 -30.4375 19.421875 -30.4375 C 18.316406 -30.4375 17.425781 -30.273438 16.75 -29.953125 C 16.082031 -29.628906 15.75 -29.117188 15.75 -28.421875 C 15.75 -28.015625 15.847656 -27.675781 16.046875 -27.40625 C 16.242188 -27.132812 16.59375 -26.875 17.09375 -26.625 C 17.59375 -26.375 18.28125 -26.109375 19.15625 -25.828125 C 20.03125 -25.554688 21.117188 -25.269531 22.421875 -24.96875 C 25.421875 -24.21875 27.941406 -23.429688 29.984375 -22.609375 C 32.035156 -21.785156 33.675781 -20.882812 34.90625 -19.90625 C 36.132812 -18.9375 37.007812 -17.835938 37.53125 -16.609375 C 38.050781 -15.378906 38.3125 -13.96875 38.3125 -12.375 C 38.3125 -8.320312 36.773438 -5.117188 33.703125 -2.765625 C 30.628906 -0.421875 26.441406 0.75 21.140625 0.75 Z M 21.140625 0.75 "/></g></g></g></g></g></g><g fill="rgb(0%, 76.078796%, 79.60968%)" fill-opacity="1"><g transform="translate(188.470284, 212.886744)"><g/></g></g><g fill="rgb(69.018555%, 47.059631%, 90.979004%)" fill-opacity="1"><g transform="translate(67.615724, 229.326082)"><g><path d="M 21.140625 0.75 C 19.492188 0.75 17.71875 0.625 15.8125 0.375 C 13.914062 0.125 12.054688 -0.195312 10.234375 -0.59375 C 8.410156 -1 6.648438 -1.488281 4.953125 -2.0625 C 3.253906 -2.632812 1.78125 -3.269531 0.53125 -3.96875 L 6 -13.640625 C 8.75 -12.191406 11.375 -11.09375 13.875 -10.34375 C 16.375 -9.59375 18.695312 -9.21875 20.84375 -9.21875 C 23.34375 -9.21875 24.59375 -9.84375 24.59375 -11.09375 C 24.59375 -11.75 24.09375 -12.328125 23.09375 -12.828125 C 22.09375 -13.328125 20.191406 -13.925781 17.390625 -14.625 C 14.597656 -15.375 12.25 -16.125 10.34375 -16.875 C 8.445312 -17.625 6.921875 -18.457031 5.765625 -19.375 C 4.617188 -20.300781 3.796875 -21.328125 3.296875 -22.453125 C 2.796875 -23.578125 2.546875 -24.890625 2.546875 -26.390625 C 2.546875 -28.390625 2.957031 -30.238281 3.78125 -31.9375 C 4.613281 -33.644531 5.773438 -35.117188 7.265625 -36.359375 C 8.765625 -37.609375 10.550781 -38.570312 12.625 -39.25 C 14.707031 -39.925781 16.972656 -40.265625 19.421875 -40.265625 C 22.066406 -40.265625 24.898438 -39.890625 27.921875 -39.140625 C 30.953125 -38.390625 34.039062 -37.289062 37.1875 -35.84375 L 31.71875 -26.765625 C 28.914062 -28.066406 26.585938 -29.003906 24.734375 -29.578125 C 22.890625 -30.148438 21.117188 -30.4375 19.421875 -30.4375 C 18.316406 -30.4375 17.425781 -30.273438 16.75 -29.953125 C 16.082031 -29.628906 15.75 -29.117188 15.75 -28.421875 C 15.75 -28.015625 15.847656 -27.675781 16.046875 -27.40625 C 16.242188 -27.132812 16.59375 -26.875 17.09375 -26.625 C 17.59375 -26.375 18.28125 -26.109375 19.15625 -25.828125 C 20.03125 -25.554688 21.117188 -25.269531 22.421875 -24.96875 C 25.421875 -24.21875 27.941406 -23.429688 29.984375 -22.609375 C 32.035156 -21.785156 33.675781 -20.882812 34.90625 -19.90625 C 36.132812 -18.9375 37.007812 -17.835938 37.53125 -16.609375 C 38.050781 -15.378906 38.3125 -13.96875 38.3125 -12.375 C 38.3125 -8.320312 36.773438 -5.117188 33.703125 -2.765625 C 30.628906 -0.421875 26.441406 0.75 21.140625 0.75 Z M 21.140625 0.75 "/></g></g></g><g fill="rgb(69.018555%, 47.059631%, 90.979004%)" fill-opacity="1"><g transform="translate(107.131851, 229.326082)"><g><path d="M 43.265625 0 L 29.015625 0 L 29.015625 -22.203125 C 29.015625 -24.148438 28.578125 -25.5625 27.703125 -26.4375 C 26.828125 -27.3125 25.738281 -27.75 24.4375 -27.75 C 23.988281 -27.75 23.453125 -27.609375 22.828125 -27.328125 C 22.203125 -27.054688 21.578125 -26.679688 20.953125 -26.203125 C 20.328125 -25.734375 19.738281 -25.144531 19.1875 -24.4375 C 18.644531 -23.738281 18.195312 -22.96875 17.84375 -22.125 L 17.84375 0 L 3.59375 0 L 3.59375 -54.734375 L 17.84375 -54.734375 L 17.84375 -33.59375 C 19.25 -35.738281 21.070312 -37.375 23.3125 -38.5 C 25.5625 -39.625 28.085938 -40.1875 30.890625 -40.1875 C 33.640625 -40.1875 35.835938 -39.710938 37.484375 -38.765625 C 39.140625 -37.816406 40.390625 -36.628906 41.234375 -35.203125 C 42.085938 -33.773438 42.640625 -32.238281 42.890625 -30.59375 C 43.140625 -28.945312 43.265625 -27.394531 43.265625 -25.9375 Z M 43.265625 0 "/></g></g></g><g fill="rgb(69.018555%, 47.059631%, 90.979004%)" fill-opacity="1"><g transform="translate(153.688579, 229.326082)"><g/></g></g><g fill="rgb(69.018555%, 47.059631%, 90.979004%)" fill-opacity="1"><g transform="translate(170.559792, 229.326082)"><g/></g></g><g fill="rgb(69.018555%, 47.059631%, 90.979004%)" fill-opacity="1"><g transform="translate(187.431005, 229.326082)"><g/></g></g><g fill="rgb(69.018555%, 47.059631%, 90.979004%)" fill-opacity="1"><g transform="translate(204.290888, 229.326082)"><g><path d="M 30.140625 0.75 C 27.296875 0.75 24.820312 0.1875 22.71875 -0.9375 C 20.625 -2.0625 19 -3.695312 17.84375 -5.84375 L 17.84375 15.96875 L 3.59375 15.96875 L 3.59375 -39.4375 L 15.96875 -39.4375 L 15.96875 -33.515625 C 17.375 -35.671875 19.097656 -37.320312 21.140625 -38.46875 C 23.191406 -39.613281 25.71875 -40.1875 28.71875 -40.1875 C 31.320312 -40.1875 33.742188 -39.675781 35.984375 -38.65625 C 38.234375 -37.632812 40.160156 -36.222656 41.765625 -34.421875 C 43.367188 -32.617188 44.628906 -30.46875 45.546875 -27.96875 C 46.472656 -25.46875 46.9375 -22.769531 46.9375 -19.875 C 46.9375 -16.925781 46.507812 -14.1875 45.65625 -11.65625 C 44.8125 -9.132812 43.640625 -6.945312 42.140625 -5.09375 C 40.640625 -3.25 38.863281 -1.8125 36.8125 -0.78125 C 34.769531 0.238281 32.546875 0.75 30.140625 0.75 Z M 25.1875 -11.25 C 26.238281 -11.25 27.203125 -11.472656 28.078125 -11.921875 C 28.953125 -12.367188 29.703125 -12.992188 30.328125 -13.796875 C 30.953125 -14.597656 31.453125 -15.519531 31.828125 -16.5625 C 32.203125 -17.613281 32.390625 -18.742188 32.390625 -19.953125 C 32.390625 -22.441406 31.675781 -24.4375 30.25 -25.9375 C 28.832031 -27.4375 26.945312 -28.1875 24.59375 -28.1875 C 21.945312 -28.1875 19.695312 -26.835938 17.84375 -24.140625 L 17.84375 -17.328125 C 18.539062 -15.578125 19.5625 -14.125 20.90625 -12.96875 C 22.257812 -11.820312 23.6875 -11.25 25.1875 -11.25 Z M 25.1875 -11.25 "/></g></g></g><g fill="rgb(0%, 76.078796%, 79.60968%)" fill-opacity="1"><g transform="translate(160.774075, 267.671135)"><g/></g></g><path fill="rgb(81.17981%, 76.078796%, 92.158508%)" d="M 152.734375 206.929688 C 152.734375 221.617188 179.070312 239.53125 179.070312 239.53125 C 179.070312 239.53125 205.289062 221.492188 205.402344 206.929688 C 205.402344 199.410156 199.285156 193.285156 191.773438 193.285156 C 186 193.285156 181.027344 196.988281 179.070312 202.070312 C 177.109375 196.988281 172.136719 193.285156 166.363281 193.285156 C 158.851562 193.285156 152.734375 199.410156 152.734375 206.929688 " fill-opacity="1" fill-rule="nonzero"/></svg>